# Blender 5.0.1
# www.blender.org
mtllib Untitled.mtl
o metszet
v 5.258000 0.050000 1.258000
v -4.000000 0.050000 0.000000
v -4.004000 0.035000 0.035000
v 5.253000 0.035000 1.293000
v -4.006000 0.000000 0.049000
v 5.251000 0.000000 1.308000
v -4.004000 -0.035000 0.035000
v 5.253000 -0.035000 1.293000
v -4.000000 -0.050000 0.000000
v 5.258000 -0.050000 1.258000
v -3.995000 -0.035000 -0.035000
v 5.263000 -0.035000 1.223000
v -3.993000 0.000000 -0.049000
v 5.265000 0.000000 1.209000
v -3.995000 0.035000 -0.035000
v 5.263000 0.035000 1.223000
v -4.000000 0.000000 -0.050000
v -4.000000 6.607000 -0.050000
v -3.964000 6.607000 -0.035000
v -3.964000 0.000000 -0.035000
v -3.950000 6.607000 0.000000
v -3.950000 0.000000 0.000000
v -3.964000 6.607000 0.035000
v -3.964000 0.000000 0.035000
v -4.000000 6.607000 0.050000
v -4.000000 0.000000 0.050000
v -4.035000 6.607000 0.035000
v -4.035000 0.000000 0.035000
v -4.050000 6.607000 0.000000
v -4.050000 0.000000 0.000000
v -4.035000 6.607000 -0.035000
v -4.035000 0.000000 -0.035000
v -3.971000 6.647000 0.003000
v 5.287000 0.040000 1.262000
v 5.283000 0.028000 1.226000
v -3.975000 6.635000 -0.032000
v -3.993000 6.607000 -0.049000
v 5.243000 -0.028000 1.220000
v -4.015000 6.578000 -0.037000
v 5.229000 -0.040000 1.254000
v -4.028000 6.566000 -0.003000
v 5.233000 -0.028000 1.290000
v -4.024000 6.578000 0.032000
v -4.006000 6.607000 0.049000
v 5.274000 0.028000 1.296000
v -3.984000 6.635000 0.037000
v -3.089000 0.050000 0.123000
v -3.084000 0.035000 0.088000
v -3.082000 0.000000 0.074000
v -3.084000 -0.035000 0.088000
v -3.089000 -0.050000 0.123000
v -3.093000 -0.035000 0.158000
v -3.095000 0.000000 0.173000
v -3.093000 0.035000 0.158000
v -3.089000 0.000000 0.073000
v -3.089000 0.919000 0.073000
v -3.053000 0.919000 0.088000
v -3.053000 0.000000 0.088000
v -3.039000 0.919000 0.123000
v -3.039000 0.000000 0.123000
v -3.053000 0.919000 0.159000
v -3.053000 0.000000 0.159000
v -3.089000 0.919000 0.173000
v -3.089000 0.000000 0.173000
v -3.124000 0.919000 0.159000
v -3.124000 0.000000 0.159000
v -3.139000 0.919000 0.123000
v -3.139000 0.000000 0.123000
v -3.124000 0.919000 0.088000
v -3.124000 0.000000 0.088000
v -4.000000 0.969000 0.000000
v -3.089000 0.969000 0.123000
v -3.084000 0.954000 0.088000
v -3.995000 0.954000 -0.035000
v -3.082000 0.919000 0.074000
v -3.993000 0.919000 -0.049000
v -3.084000 0.883000 0.088000
v -3.995000 0.883000 -0.035000
v -3.089000 0.869000 0.123000
v -4.000000 0.869000 0.000000
v -3.093000 0.883000 0.158000
v -4.004000 0.883000 0.035000
v -3.095000 0.919000 0.173000
v -4.006000 0.919000 0.049000
v -3.093000 0.954000 0.158000
v -4.004000 0.954000 0.035000
v -4.000000 0.919000 -0.050000
v -3.964000 0.919000 -0.035000
v -3.950000 0.919000 0.000000
v -3.964000 0.919000 0.035000
v -4.000000 0.919000 0.050000
v -4.035000 0.919000 0.035000
v -4.050000 0.919000 0.000000
v -4.035000 0.919000 -0.035000
v 5.258000 0.000000 1.258000
v -4.000000 0.000000 0.000000
v -4.000000 6.607000 0.000000
vn -0.0528 0.9200 0.3883
vn -0.0526 0.9206 0.3870
vn -0.1249 0.3746 0.9187
vn -0.1237 0.3969 0.9095
vn -0.1250 -0.3746 0.9187
vn -0.1236 -0.3969 0.9095
vn -0.0528 -0.9200 0.3883
vn -0.0526 -0.9206 0.3870
vn 0.0526 -0.9206 -0.3870
vn 0.1248 -0.3746 -0.9187
vn 0.1248 0.3746 -0.9187
vn 0.0526 0.9206 -0.3870
vn 0.9896 0.0050 0.1435
vn 0.9906 -0.0020 0.1367
vn 0.9899 -0.0000 0.1414
vn 0.9900 -0.0000 0.1414
vn -0.9899 -0.0000 -0.1414
vn -0.9930 0.0099 -0.1177
vn -0.9913 -0.0040 -0.1315
vn -0.9918 0.0057 -0.1275
vn -0.9913 -0.0330 -0.1274
vn 0.3846 -0.0000 -0.9231
vn 0.9285 -0.0000 -0.3714
vn 0.9285 -0.0000 0.3714
vn 0.3846 -0.0000 0.9231
vn -0.3939 -0.0000 0.9191
vn -0.9191 -0.0000 0.3939
vn -0.9191 -0.0000 -0.3939
vn -0.3939 -0.0000 -0.9191
vn -0.0000 -1.0000 -0.0000
vn -0.0000 1.0000 -0.0000
vn 0.5793 0.7518 -0.3150
vn 0.5785 0.7491 -0.3229
vn 0.3450 0.3150 -0.8842
vn -0.0878 -0.3037 -0.9487
vn -0.0976 -0.3164 -0.9436
vn -0.4735 -0.7511 -0.4601
vn -0.4778 -0.7550 -0.4491
vn -0.5793 -0.7518 0.3150
vn -0.5784 -0.7491 0.3229
vn -0.3560 -0.3326 0.8733
vn -0.3411 -0.3088 0.8879
vn 0.1009 0.3208 0.9418
vn 0.1024 0.3228 0.9409
vn 0.4777 0.7550 0.4491
vn -0.8052 0.5831 -0.1079
vn -0.8121 0.5752 -0.0989
vn -0.8095 0.5775 -0.1057
vn -0.8095 0.5775 -0.1055
vn -0.8109 0.5730 -0.1188
vn -0.8027 0.5881 -0.0993
vn 0.7930 -0.5947 0.1322
vn 0.7963 -0.5948 0.1098
vn 0.7938 -0.5970 0.1161
vn 0.8017 -0.5882 0.1064
vn 0.8068 -0.5816 0.1037
vn 0.8075 -0.5806 0.1038
vn 0.0523 0.9206 -0.3871
vn 0.1241 0.3746 -0.9188
vn 0.1241 -0.3746 -0.9188
vn 0.0523 -0.9206 -0.3871
vn -0.0524 -0.9200 0.3883
vn -0.1228 -0.3969 0.9096
vn -0.1238 0.3969 0.9095
vn -0.1241 0.3746 0.9188
vn -0.0524 0.9200 0.3883
vn -0.9900 -0.0000 -0.1414
vn -0.9935 -0.0000 -0.1135
vn -0.9918 -0.0057 -0.1273
vn -0.9941 0.0137 -0.1077
vn 0.9912 -0.0000 0.1321
vn 0.9935 -0.0000 0.1136
vn 0.9905 -0.0099 0.1373
vn 0.9913 -0.0040 0.1315
vn 0.9918 0.0057 0.1275
vn 0.9913 0.0330 0.1274
vn 0.9320 -0.0000 0.3624
vn 0.9320 -0.0000 0.3625
vn 0.3625 -0.0000 0.9320
vn 0.3624 -0.0000 0.9320
vn -0.3714 -0.0000 0.9285
vn -0.9231 -0.0000 0.3846
vn 0.1245 -0.3656 -0.9224
vn 0.0493 -0.9298 -0.3649
vn -0.0494 -0.9293 0.3661
vn -0.1233 -0.3875 0.9136
vn -0.1255 -0.3656 0.9223
vn -0.9919 -0.0056 -0.1272
vn 0.9905 -0.0100 0.1375
vn 0.1346 -0.0000 -0.9909
s 0
f 1//1 2//1 3//1
f 1//2 3//2 4//2
f 4//3 3//3 5//3
f 4//4 5//4 6//4
f 6//5 5//5 7//5
f 6//6 7//6 8//6
f 8//7 7//7 9//7
f 8//8 9//8 10//8
f 10//9 9//9 11//9
f 10//9 11//9 12//9
f 12//10 11//10 13//10
f 12//10 13//10 14//10
f 14//11 13//11 15//11
f 14//11 15//11 16//11
f 16//12 15//12 2//12
f 16//12 2//12 1//12
f 1//13 4//13 6//13
f 1//14 6//14 8//14
f 1//15 8//15 10//15
f 1//16 10//16 12//16
f 1//15 12//15 14//15
f 1//16 14//16 16//16
f 15//17 13//17 11//17
f 15//17 11//17 9//17
f 15//18 9//18 7//18
f 15//19 7//19 5//19
f 15//20 5//20 3//20
f 15//21 3//21 2//21
f 17//22 18//22 19//22
f 17//22 19//22 20//22
f 20//23 19//23 21//23
f 20//23 21//23 22//23
f 22//24 21//24 23//24
f 22//24 23//24 24//24
f 24//25 23//25 25//25
f 24//25 25//25 26//25
f 26//26 25//26 27//26
f 26//26 27//26 28//26
f 28//27 27//27 29//27
f 28//27 29//27 30//27
f 30//28 29//28 31//28
f 30//28 31//28 32//28
f 32//29 31//29 18//29
f 32//29 18//29 17//29
f 17//30 20//30 22//30
f 17//30 22//30 24//30
f 17//30 24//30 26//30
f 17//30 26//30 28//30
f 17//30 28//30 30//30
f 17//30 30//30 32//30
f 31//31 29//31 27//31
f 31//31 27//31 25//31
f 31//31 25//31 23//31
f 31//31 23//31 21//31
f 31//31 21//31 19//31
f 31//31 19//31 18//31
f 33//32 34//32 35//32
f 33//33 35//33 36//33
f 36//34 35//34 14//34
f 36//34 14//34 37//34
f 37//35 14//35 38//35
f 37//36 38//36 39//36
f 39//37 38//37 40//37
f 39//38 40//38 41//38
f 41//39 40//39 42//39
f 41//40 42//40 43//40
f 43//41 42//41 6//41
f 43//42 6//42 44//42
f 44//43 6//43 45//43
f 44//44 45//44 46//44
f 46//45 45//45 34//45
f 46//45 34//45 33//45
f 33//46 36//46 37//46
f 33//47 37//47 39//47
f 33//48 39//48 41//48
f 33//49 41//49 43//49
f 33//50 43//50 44//50
f 33//51 44//51 46//51
f 45//52 6//52 42//52
f 45//53 42//53 40//53
f 45//54 40//54 38//54
f 45//55 38//55 14//55
f 45//56 14//56 35//56
f 45//57 35//57 34//57
f 2//58 47//58 48//58
f 2//58 48//58 15//58
f 15//59 48//59 49//59
f 15//59 49//59 13//59
f 13//60 49//60 50//60
f 13//60 50//60 11//60
f 11//61 50//61 51//61
f 11//61 51//61 9//61
f 9//62 51//62 52//62
f 9//62 52//62 7//62
f 7//63 52//63 53//63
f 7//5 53//5 5//5
f 5//64 53//64 54//64
f 5//65 54//65 3//65
f 3//66 54//66 47//66
f 3//66 47//66 2//66
f 2//17 15//17 13//17
f 2//17 13//17 11//17
f 2//67 11//67 9//67
f 2//68 9//68 7//68
f 2//69 7//69 5//69
f 2//70 5//70 3//70
f 54//71 53//71 52//71
f 54//72 52//72 51//72
f 54//73 51//73 50//73
f 54//74 50//74 49//74
f 54//75 49//75 48//75
f 54//76 48//76 47//76
f 55//22 56//22 57//22
f 55//22 57//22 58//22
f 58//23 57//23 59//23
f 58//23 59//23 60//23
f 60//77 59//77 61//77
f 60//78 61//78 62//78
f 62//79 61//79 63//79
f 62//80 63//80 64//80
f 64//81 63//81 65//81
f 64//81 65//81 66//81
f 66//82 65//82 67//82
f 66//82 67//82 68//82
f 68//28 67//28 69//28
f 68//28 69//28 70//28
f 70//29 69//29 56//29
f 70//29 56//29 55//29
f 55//30 58//30 60//30
f 55//30 60//30 62//30
f 55//30 62//30 64//30
f 55//30 64//30 66//30
f 55//30 66//30 68//30
f 55//30 68//30 70//30
f 69//31 67//31 65//31
f 69//31 65//31 63//31
f 69//31 63//31 61//31
f 69//31 61//31 59//31
f 69//31 59//31 57//31
f 69//31 57//31 56//31
f 71//58 72//58 73//58
f 71//58 73//58 74//58
f 74//59 73//59 75//59
f 74//59 75//59 76//59
f 76//83 75//83 77//83
f 76//83 77//83 78//83
f 78//84 77//84 79//84
f 78//84 79//84 80//84
f 80//85 79//85 81//85
f 80//85 81//85 82//85
f 82//86 81//86 83//86
f 82//87 83//87 84//87
f 84//64 83//64 85//64
f 84//65 85//65 86//65
f 86//66 85//66 72//66
f 86//66 72//66 71//66
f 71//17 74//17 76//17
f 71//17 76//17 78//17
f 71//67 78//67 80//67
f 71//68 80//68 82//68
f 71//88 82//88 84//88
f 71//70 84//70 86//70
f 85//71 83//71 81//71
f 85//72 81//72 79//72
f 85//89 79//89 77//89
f 85//74 77//74 75//74
f 85//75 75//75 73//75
f 85//76 73//76 72//76
f 17//22 87//22 88//22
f 17//22 88//22 20//22
f 20//23 88//23 89//23
f 20//23 89//23 22//23
f 22//24 89//24 90//24
f 22//24 90//24 24//24
f 24//25 90//25 91//25
f 24//25 91//25 26//25
f 26//26 91//26 92//26
f 26//26 92//26 28//26
f 28//27 92//27 93//27
f 28//27 93//27 30//27
f 30//28 93//28 94//28
f 30//28 94//28 32//28
f 32//29 94//29 87//29
f 32//29 87//29 17//29
f 94//31 93//31 92//31
f 94//31 92//31 91//31
f 94//31 91//31 90//31
f 94//31 90//31 89//31
f 94//31 89//31 88//31
f 94//31 88//31 87//31
f 95//90 96//90 97//90
